<?xml version="1.0" encoding="utf-8"?>
<!-- Generator: Adobe Illustrator 24.1.1, SVG Export Plug-In . SVG Version: 6.00 Build 0)  -->
<svg version="1.1" id="Layer_1" xmlns="http://www.w3.org/2000/svg" xmlns:xlink="http://www.w3.org/1999/xlink" x="0px" y="0px"
	 viewBox="0 0 100 100" style="enable-background:new 0 0 100 100;" xml:space="preserve">
<style type="text/css">
	.st0{fill:none;}
	.st1{fill:#FFFFFF;}
	.st2{fill:#E34F26;}
	.st3{fill:#EF652A;}
	.st4{fill:#ECEDEE;}
	.st5{fill:#E5A228;}
	.st6{fill:#F1BF26;}
	.st7{fill:#0C73B8;}
	.st8{fill:#30A9DC;}
	.st9{fill:none;stroke:#000000;stroke-width:15;stroke-miterlimit:10;}
</style>
<rect x="12.6" y="12.5" class="st0" width="75" height="75"/>
<g>
	<path class="st1" d="M-215,90c-5.5,0-10-4.5-10-10V20c0-5.5,4.5-10,10-10h70c5.5,0,10,4.5,10,10v60c0,5.5-4.5,10-10,10H-215z"/>
	<path d="M-145,15c2.8,0,5,2.2,5,5v60c0,2.8-2.2,5-5,5h-70c-2.8,0-5-2.2-5-5V20c0-2.8,2.2-5,5-5H-145 M-145,5h-70
		c-8.3,0-15,6.7-15,15v60c0,8.3,6.7,15,15,15h70c8.3,0,15-6.7,15-15V20C-130,11.7-136.7,5-145,5L-145,5z"/>
</g>
<g>
	<path class="st2" d="M-216-25.2l-8-89.8h88.1l-8,89.8L-180.1-15L-216-25.2z"/>
	<path class="st3" d="M-179.9-22.8l29.1-8l6.8-77h-35.9V-22.8z"/>
	<path class="st4" d="M-179.9-74.4h-14.6l-1-11.3h15.6v-10.9h-27.7l2.9,33.4h24.8V-74.4z M-179.9-45.7l-12.5-3.3l-0.8-8.8h-10.9
		l1.4,17.4l22.9,6.3V-45.7z"/>
	<path class="st1" d="M-179.9-63.2h13.5l-1.4,14.3l-12.1,3.3v11.5l22.5-6.3l3.1-34h-25.6V-63.2z M-179.9-96.6v10.9h26.6l1-10.9
		H-179.9z"/>
</g>
<g>
	<path class="st5" d="M6-115H94l-8,89.8L49.9-15L14-25.2L6-115z"/>
	<path class="st6" d="M50.1-22.8l29.1-8l6.8-77H50.1V-22.8z"/>
	<path class="st4" d="M50.1-96.6H28l-2.1,33.4h24.2v-11.1H37.2l1-11.3h11.9V-96.6z M50.1-45.7L37.6-49l-0.8-8.8H25.9l1.4,17.4
		l22.9,6.3V-45.7z"/>
	<path class="st1" d="M50.1-63.2h13.5L62.2-49l-12.1,3.3v11.5l22.5-6.3l3.1-34H50.1V-63.2z M50.1-96.6h22.1l3.5,16.8H64.7l-1.6-5.9
		H50.1V-96.6z"/>
</g>
<g>
	<path class="st7" d="M-101-25.2l-8-89.8H-21l-8,89.8L-65.1-15L-101-25.2z"/>
	<path class="st8" d="M-64.9-22.8l29.1-8l6.8-77h-35.9V-22.8z"/>
	<path class="st4" d="M-64.9-74.4h-25.8l1,11.1h24.8V-74.4z M-64.9-96.6h-27.7l1,10.9h26.8V-96.6z M-64.9-45.7l-24.2-6.4l1.4,11.7
		l22.9,6.3V-45.7z"/>
	<path class="st1" d="M-64.9-63.2h13.5L-52.8-49l-12.1,3.3v11.5l22.5-6.3l5.1-56.3h-27.5v10.9h15.6l-1.2,11.3h-14.5V-63.2z"/>
</g>
<path class="st7" d="M-164.5,59.2h-41c-2.5,0-4.5-2-4.5-4.5v0c0-2.5,2-4.5,4.5-4.5h41c2.5,0,4.5,2,4.5,4.5v0
	C-160,57.2-162,59.2-164.5,59.2z"/>
<path class="st5" d="M-174.5,75.2h-31c-2.5,0-4.5-2-4.5-4.5v0c0-2.5,2-4.5,4.5-4.5h31c2.5,0,4.5,2,4.5,4.5v0
	C-170,73.2-172,75.2-174.5,75.2z"/>
<path class="st2" d="M-154.5,43.2h-51c-2.5,0-4.5-2-4.5-4.5v0c0-2.5,2-4.5,4.5-4.5h51c2.5,0,4.5,2,4.5,4.5v0
	C-150,41.2-152,43.2-154.5,43.2z"/>
<g>
	<path d="M-130,25h-100v-5c0-8.3,6.7-15,15-15h70c8.3,0,15,6.7,15,15V25z"/>
</g>
<g>
	<path d="M-45,10v80h-40V10H-45 M-45,0h-40c-5.5,0-10,4.5-10,10v80c0,5.5,4.5,10,10,10h40c5.5,0,10-4.5,10-10V10
		C-35,4.5-39.5,0-45,0L-45,0z"/>
</g>
<g>
	<path d="M-65,70c-3.9,0-7,3.1-7,7s3.1,7,7,7s7-3.1,7-7S-61.1,70-65,70L-65,70z"/>
</g>
<g>
	<path class="st9" d="M12.6,37.5v-21c0-2.2,1.8-4,4-4h21"/>
</g>
<g>
	<path class="st9" d="M87.6,62.5v21c0,2.2-1.8,4-4,4h-21"/>
</g>
<g>
	<path class="st9" d="M62.6,12.5h21c2.2,0,4,1.8,4,4v21"/>
</g>
<g>
	<path class="st9" d="M37.6,87.5h-21c-2.2,0-4-1.8-4-4v-21"/>
</g>
</svg>
