<?xml version="1.0" encoding="utf-8"?>
<!-- Generator: Adobe Illustrator 24.1.1, SVG Export Plug-In . SVG Version: 6.00 Build 0)  -->
<svg version="1.1" id="Layer_1" xmlns="http://www.w3.org/2000/svg" xmlns:xlink="http://www.w3.org/1999/xlink" x="0px" y="0px"
	 viewBox="0 0 100 100" style="enable-background:new 0 0 100 100;" xml:space="preserve">
<style type="text/css">
	.st0{fill:none;}
	.st1{fill:#E34F26;}
	.st2{fill:#EF652A;}
	.st3{fill:#ECEDEE;}
	.st4{fill:#FFFFFF;}
	.st5{fill:#E5A228;}
	.st6{fill:#F1BF26;}
	.st7{fill:#0C73B8;}
	.st8{fill:#30A9DC;}
	.st9{fill:none;stroke:#000000;stroke-width:15;stroke-miterlimit:10;}
</style>
<rect x="-102.4" y="12.5" class="st0" width="75" height="75"/>
<g>
	<path class="st1" d="M-216-25.2l-8-89.8h88.1l-8,89.8L-180.1-15L-216-25.2z"/>
	<path class="st2" d="M-179.9-22.8l29.1-8l6.8-77h-35.9V-22.8z"/>
	<path class="st3" d="M-179.9-74.4h-14.6l-1-11.3h15.6v-10.9h-27.7l2.9,33.4h24.8V-74.4z M-179.9-45.7l-12.5-3.3l-0.8-8.8h-10.9
		l1.4,17.4l22.9,6.3V-45.7z"/>
	<path class="st4" d="M-179.9-63.2h13.5l-1.4,14.3l-12.1,3.3v11.5l22.5-6.3l3.1-34h-25.6V-63.2z M-179.9-96.6v10.9h26.6l1-10.9
		H-179.9z"/>
</g>
<g>
	<path class="st5" d="M6-115H94l-8,89.8L49.9-15L14-25.2L6-115z"/>
	<path class="st6" d="M50.1-22.8l29.1-8l6.8-77H50.1V-22.8z"/>
	<path class="st3" d="M50.1-96.6H28l-2.1,33.4h24.2v-11.1H37.2l1-11.3h11.9V-96.6z M50.1-45.7L37.6-49l-0.8-8.8H25.9l1.4,17.4
		l22.9,6.3V-45.7z"/>
	<path class="st4" d="M50.1-63.2h13.5L62.2-49l-12.1,3.3v11.5l22.5-6.3l3.1-34H50.1V-63.2z M50.1-96.6h22.1l3.5,16.8H64.7l-1.6-5.9
		H50.1V-96.6z"/>
</g>
<g>
	<path class="st7" d="M-101-25.2l-8-89.8H-21l-8,89.8L-65.1-15L-101-25.2z"/>
	<path class="st8" d="M-64.9-22.8l29.1-8l6.8-77h-35.9V-22.8z"/>
	<path class="st3" d="M-64.9-74.4h-25.8l1,11.1h24.8V-74.4z M-64.9-96.6h-27.7l1,10.9h26.8V-96.6z M-64.9-45.7l-24.2-6.4l1.4,11.7
		l22.9,6.3V-45.7z"/>
	<path class="st4" d="M-64.9-63.2h13.5L-52.8-49l-12.1,3.3v11.5l22.5-6.3l5.1-56.3h-27.5v10.9h15.6l-1.2,11.3h-14.5V-63.2z"/>
</g>
<g>
	<path d="M-160,10v80h-40V10H-160 M-160,0h-40c-5.5,0-10,4.5-10,10v80c0,5.5,4.5,10,10,10h40c5.5,0,10-4.5,10-10V10
		C-150,4.5-154.5,0-160,0L-160,0z"/>
</g>
<g>
	<path d="M-180,70c-3.9,0-7,3.1-7,7s3.1,7,7,7s7-3.1,7-7S-176.1,70-180,70L-180,70z"/>
</g>
<g>
	<path class="st9" d="M-102.4,37.5v-21c0-2.2,1.8-4,4-4h21"/>
</g>
<g>
	<path class="st9" d="M-27.4,62.5v21c0,2.2-1.8,4-4,4h-21"/>
</g>
<g>
	<path class="st9" d="M-52.4,12.5h21c2.2,0,4,1.8,4,4v21"/>
</g>
<g>
	<path class="st9" d="M-77.4,87.5h-21c-2.2,0-4-1.8-4-4v-21"/>
</g>
<g>
	<path d="M66.7,50c0-4.6-1.6-8.5-4.9-11.8c-3.3-3.3-7.2-4.9-11.8-4.9s-8.5,1.6-11.8,4.9c-3.3,3.3-4.9,7.2-4.9,11.8s1.6,8.5,4.9,11.8
		c3.3,3.3,7.2,4.9,11.8,4.9s8.5-1.6,11.8-4.9C65,58.5,66.7,54.6,66.7,50z M100,42.9v14.5c0,0.5-0.2,1-0.5,1.5
		c-0.3,0.5-0.8,0.8-1.3,0.8l-12,1.8c-0.8,2.3-1.7,4.3-2.5,5.9c1.5,2.2,3.8,5.2,7,9c0.4,0.5,0.7,1.1,0.7,1.6c0,0.6-0.2,1.1-0.6,1.5
		c-1.2,1.6-3.3,3.9-6.4,7c-3.1,3.1-5.2,4.6-6.1,4.6c-0.5,0-1.1-0.2-1.7-0.6l-9-7c-1.9,1-3.9,1.8-5.9,2.5c-0.7,5.9-1.3,9.9-1.9,12.1
		c-0.3,1.2-1.1,1.8-2.3,1.8H42.8c-0.6,0-1.1-0.2-1.6-0.6c-0.5-0.4-0.7-0.8-0.7-1.4l-1.8-12c-2.1-0.7-4.1-1.5-5.9-2.4l-9.2,7
		c-0.4,0.4-1,0.6-1.6,0.6c-0.6,0-1.2-0.2-1.6-0.7c-5.5-4.9-9-8.6-10.7-10.9c-0.3-0.4-0.5-0.9-0.5-1.5c0-0.5,0.2-1,0.5-1.5
		c0.7-0.9,1.8-2.4,3.3-4.3c1.6-2,2.7-3.5,3.5-4.6c-1.2-2.2-2.1-4.3-2.7-6.4L1.9,59.4c-0.6-0.1-1-0.4-1.4-0.8c-0.3-0.5-0.5-1-0.5-1.5
		V42.6c0-0.5,0.2-1,0.5-1.5c0.3-0.5,0.8-0.8,1.2-0.8l12.1-1.8c0.6-2,1.5-4,2.5-6c-1.7-2.5-4.1-5.5-7-9c-0.4-0.5-0.7-1-0.7-1.6
		c0-0.4,0.2-0.9,0.6-1.5c1.1-1.6,3.3-3.9,6.4-7s5.2-4.7,6.2-4.7c0.6,0,1.1,0.2,1.7,0.7l9,7c1.9-1,3.9-1.8,5.9-2.5
		C39.2,8,39.9,4,40.4,1.8C40.7,0.6,41.5,0,42.8,0h14.5c0.6,0,1.1,0.2,1.6,0.6c0.5,0.4,0.7,0.8,0.7,1.4l1.8,12
		c2.1,0.7,4.1,1.5,5.9,2.4l9.2-7c0.4-0.4,0.9-0.6,1.6-0.6c0.6,0,1.1,0.2,1.6,0.7c5.6,5.2,9.2,8.9,10.7,11.1c0.3,0.3,0.5,0.8,0.5,1.4
		c0,0.5-0.2,1-0.5,1.5c-0.7,0.9-1.8,2.4-3.3,4.3s-2.7,3.5-3.5,4.6c1.1,2.2,2,4.3,2.7,6.4l11.9,1.8c0.6,0.1,1,0.4,1.4,0.8
		C99.8,41.8,100,42.3,100,42.9z"/>
</g>
</svg>
