<svg id="Layer_1" data-name="Layer 1" xmlns="http://www.w3.org/2000/svg" xmlns:xlink="http://www.w3.org/1999/xlink" viewBox="0 0 150 100"><defs><style>.cls-1{fill:url(#linear-gradient);}.cls-2{fill:#fff;}.cls-3{fill:url(#linear-gradient-2);}.cls-4{fill:url(#linear-gradient-3);}.cls-5{fill:none;stroke:#000;stroke-linecap:round;stroke-linejoin:round;stroke-width:6px;}</style><linearGradient id="linear-gradient" x1="75" y1="15.36" x2="135" y2="50" gradientUnits="userSpaceOnUse"><stop offset="0" stop-color="#f6c113"/><stop offset="1" stop-color="#f1600c"/></linearGradient><linearGradient id="linear-gradient-2" x1="50" y1="58.66" x2="84.65" y2="78.66" gradientUnits="userSpaceOnUse"><stop offset="0" stop-color="#00a3f7"/><stop offset="1" stop-color="#0343e7"/></linearGradient><linearGradient id="linear-gradient-3" x1="15" y1="50" x2="49.64" y2="70" xlink:href="#linear-gradient-2"/></defs><path d="M55,93A43,43,0,0,1,12,50a3,3,0,0,1,3-3H52.11A43,43,0,0,1,138,50a3,3,0,0,1-3,3H97.9A43.06,43.06,0,0,1,55,93Z"/><path d="M95,10a40,40,0,0,1,40,40H95a40,40,0,0,1-80,0H55A40,40,0,0,1,95,10m0-6A46,46,0,0,0,49.4,44H15a6,6,0,0,0-6,6,46,46,0,0,0,91.61,6H135a6,6,0,0,0,6-6A46.06,46.06,0,0,0,95,4Z"/><path class="cls-1" d="M95,50h40A40,40,0,0,0,75,15.37,40,40,0,0,1,95,50Z"/><path class="cls-2" d="M55,50H95A40,40,0,0,0,75,15.37,40,40,0,0,0,55,50Z"/><path class="cls-3" d="M55,50H95A40,40,0,0,1,35,84.64,40,40,0,0,0,55,50Z"/><path class="cls-4" d="M15,50H55A40,40,0,0,1,35,84.64,40,40,0,0,1,15,50Z"/><path class="cls-5" d="M69.67,38a5.33,5.33,0,1,1,10.66,0"/></svg>