<?xml version="1.0" encoding="utf-8"?>
<!-- Generator: Adobe Illustrator 24.1.1, SVG Export Plug-In . SVG Version: 6.00 Build 0)  -->
<svg version="1.1" id="Layer_1" xmlns="http://www.w3.org/2000/svg" xmlns:xlink="http://www.w3.org/1999/xlink" x="0px" y="0px"
	 viewBox="0 0 100 100" style="enable-background:new 0 0 100 100;" xml:space="preserve">
<style type="text/css">
	.st0{fill:#FFFFFF;}
	.st1{fill:#E34F26;}
	.st2{fill:#EF652A;}
	.st3{fill:#ECEDEE;}
	.st4{fill:#E5A228;}
	.st5{fill:#F1BF26;}
	.st6{fill:#0C73B8;}
	.st7{fill:#30A9DC;}
	.st8{fill:none;stroke:#000000;stroke-width:16;stroke-miterlimit:10;}
</style>
<g>
	<path class="st0" d="M-100,90c-5.5,0-10-4.5-10-10V20c0-5.5,4.5-10,10-10h70c5.5,0,10,4.5,10,10v60c0,5.5-4.5,10-10,10H-100z"/>
	<path d="M-30,15c2.8,0,5,2.2,5,5v60c0,2.8-2.2,5-5,5h-70c-2.8,0-5-2.2-5-5V20c0-2.8,2.2-5,5-5H-30 M-30,5h-70c-8.3,0-15,6.7-15,15
		v60c0,8.3,6.7,15,15,15h70c8.3,0,15-6.7,15-15V20C-15,11.7-21.7,5-30,5L-30,5z"/>
</g>
<g>
	<path class="st1" d="M-101-25.2l-8-89.8H-21l-8,89.8L-65.1-15L-101-25.2z"/>
	<path class="st2" d="M-64.9-22.8l29.1-8l6.8-77h-35.9V-22.8z"/>
	<path class="st3" d="M-64.9-74.4h-14.6l-1-11.3h15.6v-10.9h-27.7l2.9,33.4h24.8V-74.4z M-64.9-45.7L-77.4-49l-0.8-8.8h-10.9
		l1.4,17.4l22.9,6.3V-45.7z"/>
	<path class="st0" d="M-64.9-63.2h13.5L-52.8-49l-12.1,3.3v11.5l22.5-6.3l3.1-34h-25.6V-63.2z M-64.9-96.6v10.9h26.6l1-10.9H-64.9z"
		/>
</g>
<g>
	<path class="st4" d="M121-115H209l-8,89.8L164.9-15L129-25.2L121-115z"/>
	<path class="st5" d="M165.1-22.8l29.1-8l6.8-77h-35.9V-22.8z"/>
	<path class="st3" d="M165.1-96.6H143l-2.1,33.4h24.2v-11.1h-12.9l1-11.3h11.9V-96.6z M165.1-45.7L152.6-49l-0.8-8.8h-10.9l1.4,17.4
		l22.9,6.3V-45.7z"/>
	<path class="st0" d="M165.1-63.2h13.5L177.2-49l-12.1,3.3v11.5l22.5-6.3l3.1-34h-25.6V-63.2z M165.1-96.6h22.1l3.5,16.8h-10.9
		l-1.6-5.9h-13.1V-96.6z"/>
</g>
<g>
	<path class="st6" d="M14-25.2L6-115H94l-8,89.8L49.9-15L14-25.2z"/>
	<path class="st7" d="M50.1-22.8l29.1-8l6.8-77H50.1V-22.8z"/>
	<path class="st3" d="M50.1-74.4H24.3l1,11.1h24.8V-74.4z M50.1-96.6H22.4l1,10.9h26.8V-96.6z M50.1-45.7l-24.2-6.4l1.4,11.7
		l22.9,6.3V-45.7z"/>
	<path class="st0" d="M50.1-63.2h13.5L62.2-49l-12.1,3.3v11.5l22.5-6.3l5.1-56.3H50.1v10.9h15.6l-1.2,11.3H50.1V-63.2z"/>
</g>
<path class="st6" d="M-49.5,59.2h-41c-2.5,0-4.5-2-4.5-4.5v0c0-2.5,2-4.5,4.5-4.5h41c2.5,0,4.5,2,4.5,4.5v0
	C-45,57.2-47,59.2-49.5,59.2z"/>
<path class="st4" d="M-59.5,75.2h-31c-2.5,0-4.5-2-4.5-4.5v0c0-2.5,2-4.5,4.5-4.5h31c2.5,0,4.5,2,4.5,4.5v0
	C-55,73.2-57,75.2-59.5,75.2z"/>
<path class="st1" d="M-39.5,43.2h-51c-2.5,0-4.5-2-4.5-4.5v0c0-2.5,2-4.5,4.5-4.5h51c2.5,0,4.5,2,4.5,4.5v0
	C-35,41.2-37,43.2-39.5,43.2z"/>
<g>
	<path d="M-15,25h-100v-5c0-8.3,6.7-15,15-15h70c8.3,0,15,6.7,15,15V25z"/>
</g>
<g>
	<path d="M70,10v80H30V10H70 M70,0H30c-5.5,0-10,4.5-10,10v80c0,5.5,4.5,10,10,10h40c5.5,0,10-4.5,10-10V10C80,4.5,75.5,0,70,0L70,0
		z"/>
</g>
<g>
	<path d="M50,70c-3.9,0-7,3.1-7,7s3.1,7,7,7s7-3.1,7-7S53.9,70,50,70L50,70z"/>
</g>
<polyline class="st8" points="123,36 123,8 151,8 "/>
<polyline class="st8" points="179,8 207,8 207,36 "/>
<polyline class="st8" points="207,64 207,92 179,92 "/>
<polyline class="st8" points="151,92 123,92 123,64 "/>
</svg>
