<?xml version="1.0" encoding="utf-8"?>
<!-- Generator: Adobe Illustrator 24.1.1, SVG Export Plug-In . SVG Version: 6.00 Build 0)  -->
<svg version="1.1" id="Layer_1" xmlns="http://www.w3.org/2000/svg" xmlns:xlink="http://www.w3.org/1999/xlink" x="0px" y="0px"
	 viewBox="0 0 100 100" style="enable-background:new 0 0 100 100;" xml:space="preserve">
<style type="text/css">
	.st0{fill:#E34F26;}
	.st1{fill:#EF652A;}
	.st2{fill:#ECEDEE;}
	.st3{fill:#FFFFFF;}
	.st4{fill:#E5A228;}
	.st5{fill:#F1BF26;}
	.st6{fill:#0C73B8;}
	.st7{fill:#30A9DC;}
</style>
<g>
	<path class="st0" d="M-106,89.8L-114,0H-26l-8,89.8L-70.1,100L-106,89.8z"/>
	<path class="st1" d="M-69.9,92.2l29.1-8l6.8-77h-35.9V92.2z"/>
	<path class="st2" d="M-69.9,40.6h-14.6l-1-11.3h15.6V18.4h-27.7l2.9,33.4h24.8V40.6z M-69.9,69.3L-82.4,66l-0.8-8.8h-10.9l1.4,17.4
		l22.9,6.3V69.3z"/>
	<path class="st3" d="M-69.9,51.8h13.5L-57.8,66l-12.1,3.3v11.5l22.5-6.3l3.1-34h-25.6V51.8z M-69.9,18.4v10.9h26.6l1-10.9H-69.9z"
		/>
</g>
<g>
	<path class="st4" d="M126,0H214l-8,89.8L169.9,100L134,89.8L126,0z"/>
	<path class="st5" d="M170.1,92.2l29.1-8l6.8-77h-35.9V92.2z"/>
	<path class="st2" d="M170.1,18.4H148l-2.1,33.4h24.2V40.6h-12.9l1-11.3h11.9V18.4z M170.1,69.3L157.6,66l-0.8-8.8h-10.9l1.4,17.4
		l22.9,6.3V69.3z"/>
	<path class="st3" d="M170.1,51.8h13.5L182.2,66l-12.1,3.3v11.5l22.5-6.3l3.1-34h-25.6V51.8z M170.1,18.4h22.1l3.5,16.8h-10.9
		l-1.6-5.9h-13.1V18.4z"/>
</g>
<g>
	<path class="st6" d="M14,89.8L6,0H94l-8,89.8L49.9,100L14,89.8z"/>
	<path class="st7" d="M50.1,92.2l29.1-8l6.8-77H50.1V92.2z"/>
	<path class="st2" d="M50.1,40.6H24.3l1,11.1h24.8V40.6z M50.1,18.4H22.4l1,10.9h26.8V18.4z M50.1,69.3l-24.2-6.4l1.4,11.7l22.9,6.3
		V69.3z"/>
	<path class="st3" d="M50.1,51.8h13.5L62.2,66l-12.1,3.3v11.5l22.5-6.3l5.1-56.3H50.1v10.9h15.6l-1.2,11.3H50.1V51.8z"/>
</g>
</svg>
