<svg id="CSS" xmlns="http://www.w3.org/2000/svg" viewBox="0 0 100 100"><defs><style>.cls-1{fill:#3067e9;}.cls-2{fill:#347df3;}.cls-3{fill:#ecedee;}.cls-4{fill:#fff;}</style></defs><path class="cls-1" d="M14,89.84,6,0H94L86,89.84,49.9,100Z"/><path class="cls-2" d="M50.1,92.19l29.1-8L86,7.23H50.1Z"/><path class="cls-3" d="M50.1,40.63H24.32l1,11.13H50.1Zm0-22.27H22.36l1,10.94H50.1Z"/><path class="cls-4" d="M50.1,51.76H63.57L62.21,66,50.1,69.34V80.86l22.46-6.25,5.08-56.25H50.1V29.3H65.72L64.55,40.63H50.1Z"/><polygon class="cls-3" points="50.1 69.34 37.6 66.02 36.82 57.23 25.83 57.23 27.38 74.64 50.1 80.86 50.1 69.34"/></svg>