<?xml version="1.0" encoding="utf-8"?>
<!-- Generator: Adobe Illustrator 24.1.1, SVG Export Plug-In . SVG Version: 6.00 Build 0)  -->
<svg version="1.1" id="Layer_1" xmlns="http://www.w3.org/2000/svg" xmlns:xlink="http://www.w3.org/1999/xlink" x="0px" y="0px"
	 viewBox="0 0 100 100" style="enable-background:new 0 0 100 100;" xml:space="preserve">
<style type="text/css">
	.st0{fill:#E34F26;}
	.st1{fill:#EF652A;}
	.st2{fill:#ECEDEE;}
	.st3{fill:#FFFFFF;}
	.st4{fill:#E5A228;}
	.st5{fill:#F1BF26;}
	.st6{fill:#0C73B8;}
	.st7{fill:#30A9DC;}
</style>
<g>
	<path class="st0" d="M-226,89.8L-234,0h88.1l-8,89.8l-36.1,10.2L-226,89.8z"/>
	<path class="st1" d="M-189.9,92.2l29.1-8l6.8-77h-35.9V92.2z"/>
	<path class="st2" d="M-189.9,40.6h-14.6l-1-11.3h15.6V18.4h-27.7l2.9,33.4h24.8V40.6z M-189.9,69.3l-12.5-3.3l-0.8-8.8h-10.9
		l1.4,17.4l22.9,6.3V69.3z"/>
	<path class="st3" d="M-189.9,51.8h13.5l-1.4,14.3l-12.1,3.3v11.5l22.5-6.3l3.1-34h-25.6V51.8z M-189.9,18.4v10.9h26.6l1-10.9
		H-189.9z"/>
</g>
<g>
	<path class="st4" d="M6,0H94l-8,89.8L49.9,100L14,89.8L6,0z"/>
	<path class="st5" d="M50.1,92.2l29.1-8l6.8-77H50.1V92.2z"/>
	<path class="st2" d="M50.1,18.4H28l-2.1,33.4h24.2V40.6H37.2l1-11.3h11.9V18.4z M50.1,69.3L37.6,66l-0.8-8.8H25.9l1.4,17.4
		l22.9,6.3V69.3z"/>
	<path class="st3" d="M50.1,51.8h13.5L62.2,66l-12.1,3.3v11.5l22.5-6.3l3.1-34H50.1V51.8z M50.1,18.4h22.1l3.5,16.8H64.7l-1.6-5.9
		H50.1V18.4z"/>
</g>
<g>
	<path class="st6" d="M-106,89.8L-114,0H-26l-8,89.8L-70.1,100L-106,89.8z"/>
	<path class="st7" d="M-69.9,92.2l29.1-8l6.8-77h-35.9V92.2z"/>
	<path class="st2" d="M-69.9,40.6h-25.8l1,11.1h24.8V40.6z M-69.9,18.4h-27.7l1,10.9h26.8V18.4z M-69.9,69.3l-24.2-6.4l1.4,11.7
		l22.9,6.3V69.3z"/>
	<path class="st3" d="M-69.9,51.8h13.5L-57.8,66l-12.1,3.3v11.5l22.5-6.3l5.1-56.3h-27.5v10.9h15.6l-1.2,11.3h-14.5V51.8z"/>
</g>
</svg>
