<?xml version="1.0" encoding="utf-8"?>
<!-- Generator: Adobe Illustrator 24.1.1, SVG Export Plug-In . SVG Version: 6.00 Build 0)  -->
<svg version="1.1" id="Layer_1" xmlns="http://www.w3.org/2000/svg" xmlns:xlink="http://www.w3.org/1999/xlink" x="0px" y="0px"
	 viewBox="0 0 100 100" enable-background="new 0 0 100 100" xml:space="preserve">
<g>
	<path d="M94,3c1.7,0,3,1.3,3,3v33c0,1.7-1.3,3-3,3H6c-1.7,0-3-1.3-3-3V6c0-1.7,1.3-3,3-3H94 M94,0H6C2.7,0,0,2.7,0,6v33
		c0,3.3,2.7,6,6,6h88c3.3,0,6-2.7,6-6V6C100,2.7,97.3,0,94,0L94,0z"/>
</g>
<g>
	<path d="M39,58c1.7,0,3,1.3,3,3v33c0,1.7-1.3,3-3,3H6c-1.7,0-3-1.3-3-3V61c0-1.7,1.3-3,3-3H39 M39,55H6c-3.3,0-6,2.7-6,6v33
		c0,3.3,2.7,6,6,6h33c3.3,0,6-2.7,6-6V61C45,57.7,42.3,55,39,55L39,55z"/>
</g>
<g>
	<path d="M94,58c1.7,0,3,1.3,3,3v33c0,1.7-1.3,3-3,3H61c-1.7,0-3-1.3-3-3V61c0-1.7,1.3-3,3-3H94 M94,55H61c-3.3,0-6,2.7-6,6v33
		c0,3.3,2.7,6,6,6h33c3.3,0,6-2.7,6-6V61C100,57.7,97.3,55,94,55L94,55z"/>
</g>
<g>
	<path d="M209-112c1.7,0,3,1.3,3,3v14.7c0,1.7-1.3,3-3,3h-88c-1.7,0-3-1.3-3-3V-109c0-1.7,1.3-3,3-3H209 M209-115h-88
		c-3.3,0-6,2.7-6,6v14.7c0,3.3,2.7,6,6,6h88c3.3,0,6-2.7,6-6V-109C215-112.3,212.3-115,209-115L209-115z"/>
</g>
<g>
	<path d="M209-38.7c1.7,0,3,1.3,3,3V-21c0,1.7-1.3,3-3,3h-88c-1.7,0-3-1.3-3-3v-14.7c0-1.7,1.3-3,3-3H209 M209-41.7h-88
		c-3.3,0-6,2.7-6,6V-21c0,3.3,2.7,6,6,6h88c3.3,0,6-2.7,6-6v-14.7C215-39,212.3-41.7,209-41.7L209-41.7z"/>
</g>
<g>
	<path d="M209-75.3c1.7,0,3,1.3,3,3v14.7c0,1.7-1.3,3-3,3h-88c-1.7,0-3-1.3-3-3v-14.7c0-1.7,1.3-3,3-3H209 M209-78.3h-88
		c-3.3,0-6,2.7-6,6v14.7c0,3.3,2.7,6,6,6h88c3.3,0,6-2.7,6-6v-14.7C215-75.6,212.3-78.3,209-78.3L209-78.3z"/>
</g>
<path fill="none" d="M85-94v46h9c1.7,0,3-1.3,3-3v-58c0-1.7-1.3-3-3-3H36c-1.7,0-3,1.3-3,3v9h46C82.3-100,85-97.3,85-94z"/>
<rect x="18" y="-85" width="12" height="3"/>
<rect x="67" y="-45" width="3" height="12"/>
<path d="M67-21c0,1.7-1.3,3-3,3H6c-1.7,0-3-1.3-3-3v-58c0-1.7,1.3-3,3-3h9v-3H6c-3.3,0-6,2.7-6,6v58c0,3.3,2.7,6,6,6h58
	c3.3,0,6-2.7,6-6v-9h-3V-21z"/>
<path d="M64-82c1.7,0,3,1.3,3,3v31h3v-31c0-3.3-2.7-6-6-6H33v3H64z"/>
<path d="M94-115H36c-3.3,0-6,2.7-6,6v9h3v-9c0-1.7,1.3-3,3-3h58c1.7,0,3,1.3,3,3v58c0,1.7-1.3,3-3,3h-9v3h9c3.3,0,6-2.7,6-6v-58
	C100-112.3,97.3-115,94-115z"/>
<rect x="30" y="-85" width="3" height="3"/>
<rect x="67" y="-48" width="3" height="3"/>
<path d="M18-94c0-1.7,1.3-3,3-3h9v-3h-9c-3.3,0-6,2.7-6,6v9h3V-94z"/>
<path d="M79-97c1.7,0,3,1.3,3,3v46h3v-46c0-3.3-2.7-6-6-6H33v3H79z"/>
<path d="M82-36c0,1.7-1.3,3-3,3h-9v3h9c3.3,0,6-2.7,6-6v-9h-3V-36z"/>
<rect x="15" y="-85" width="3" height="3"/>
<rect x="67" y="-33" width="3" height="3"/>
<rect x="82" y="-48" width="3" height="3"/>
<rect x="30" y="-100" width="3" height="3"/>
<g>
	<path d="M159,3c1.7,0,3,1.3,3,3v13c0,5,4,9,9,9h38c1.7,0,3,1.3,3,3v63c0,1.7-1.3,3-3,3h-88c-1.7,0-3-1.3-3-3V6c0-1.7,1.3-3,3-3H159
		 M159,0h-38c-3.3,0-6,2.7-6,6v88c0,3.3,2.7,6,6,6h88c3.3,0,6-2.7,6-6V31c0-3.3-2.7-6-6-6h-38c-3.3,0-6-2.7-6-6V6
		C165,2.7,162.3,0,159,0L159,0z"/>
</g>
</svg>
