<?xml version="1.0" encoding="utf-8"?>
<!-- Generator: Adobe Illustrator 24.1.1, SVG Export Plug-In . SVG Version: 6.00 Build 0)  -->
<svg version="1.1" id="Layer_1" xmlns="http://www.w3.org/2000/svg" xmlns:xlink="http://www.w3.org/1999/xlink" x="0px" y="0px"
	 viewBox="0 0 100 100" enable-background="new 0 0 100 100" xml:space="preserve">
<g>
	<path d="M94,118c1.7,0,3,1.3,3,3v33c0,1.7-1.3,3-3,3H6c-1.7,0-3-1.3-3-3v-33c0-1.7,1.3-3,3-3H94 M94,115H6c-3.3,0-6,2.7-6,6v33
		c0,3.3,2.7,6,6,6h88c3.3,0,6-2.7,6-6v-33C100,117.7,97.3,115,94,115L94,115z"/>
</g>
<g>
	<path d="M39,173c1.7,0,3,1.3,3,3v33c0,1.7-1.3,3-3,3H6c-1.7,0-3-1.3-3-3v-33c0-1.7,1.3-3,3-3H39 M39,170H6c-3.3,0-6,2.7-6,6v33
		c0,3.3,2.7,6,6,6h33c3.3,0,6-2.7,6-6v-33C45,172.7,42.3,170,39,170L39,170z"/>
</g>
<g>
	<path d="M94,173c1.7,0,3,1.3,3,3v33c0,1.7-1.3,3-3,3H61c-1.7,0-3-1.3-3-3v-33c0-1.7,1.3-3,3-3H94 M94,170H61c-3.3,0-6,2.7-6,6v33
		c0,3.3,2.7,6,6,6h33c3.3,0,6-2.7,6-6v-33C100,172.7,97.3,170,94,170L94,170z"/>
</g>
<g>
	<path d="M209,3c1.7,0,3,1.3,3,3v14.7c0,1.7-1.3,3-3,3h-88c-1.7,0-3-1.3-3-3V6c0-1.7,1.3-3,3-3H209 M209,0h-88c-3.3,0-6,2.7-6,6
		v14.7c0,3.3,2.7,6,6,6h88c3.3,0,6-2.7,6-6V6C215,2.7,212.3,0,209,0L209,0z"/>
</g>
<g>
	<path d="M209,76.3c1.7,0,3,1.3,3,3V94c0,1.7-1.3,3-3,3h-88c-1.7,0-3-1.3-3-3V79.3c0-1.7,1.3-3,3-3H209 M209,73.3h-88
		c-3.3,0-6,2.7-6,6V94c0,3.3,2.7,6,6,6h88c3.3,0,6-2.7,6-6V79.3C215,76,212.3,73.3,209,73.3L209,73.3z"/>
</g>
<g>
	<path d="M209,39.7c1.7,0,3,1.3,3,3v14.7c0,1.7-1.3,3-3,3h-88c-1.7,0-3-1.3-3-3V42.7c0-1.7,1.3-3,3-3H209 M209,36.7h-88
		c-3.3,0-6,2.7-6,6v14.7c0,3.3,2.7,6,6,6h88c3.3,0,6-2.7,6-6V42.7C215,39.4,212.3,36.7,209,36.7L209,36.7z"/>
</g>
<path fill="none" d="M85,21v46h9c1.7,0,3-1.3,3-3V6c0-1.7-1.3-3-3-3H36c-1.7,0-3,1.3-3,3v9h46C82.3,15,85,17.7,85,21z"/>
<rect x="18" y="30" width="12" height="3"/>
<rect x="67" y="70" width="3" height="12"/>
<path d="M67,94c0,1.7-1.3,3-3,3H6c-1.7,0-3-1.3-3-3V36c0-1.7,1.3-3,3-3h9v-3H6c-3.3,0-6,2.7-6,6v58c0,3.3,2.7,6,6,6h58
	c3.3,0,6-2.7,6-6v-9h-3V94z"/>
<path d="M64,33c1.7,0,3,1.3,3,3v31h3V36c0-3.3-2.7-6-6-6H33v3H64z"/>
<path d="M94,0H36c-3.3,0-6,2.7-6,6v9h3V6c0-1.7,1.3-3,3-3h58c1.7,0,3,1.3,3,3v58c0,1.7-1.3,3-3,3h-9v3h9c3.3,0,6-2.7,6-6V6
	C100,2.7,97.3,0,94,0z"/>
<rect x="30" y="30" width="3" height="3"/>
<rect x="67" y="67" width="3" height="3"/>
<path d="M18,21c0-1.7,1.3-3,3-3h9v-3h-9c-3.3,0-6,2.7-6,6v9h3V21z"/>
<path d="M79,18c1.7,0,3,1.3,3,3v46h3V21c0-3.3-2.7-6-6-6H33v3H79z"/>
<path d="M82,79c0,1.7-1.3,3-3,3h-9v3h9c3.3,0,6-2.7,6-6v-9h-3V79z"/>
<rect x="15" y="30" width="3" height="3"/>
<rect x="67" y="82" width="3" height="3"/>
<rect x="82" y="67" width="3" height="3"/>
<rect x="30" y="15" width="3" height="3"/>
<g>
	<path d="M159,118c1.7,0,3,1.3,3,3v13c0,5,4,9,9,9h38c1.7,0,3,1.3,3,3v63c0,1.7-1.3,3-3,3h-88c-1.7,0-3-1.3-3-3v-88c0-1.7,1.3-3,3-3
		H159 M159,115h-38c-3.3,0-6,2.7-6,6v88c0,3.3,2.7,6,6,6h88c3.3,0,6-2.7,6-6v-63c0-3.3-2.7-6-6-6h-38c-3.3,0-6-2.7-6-6v-13
		C165,117.7,162.3,115,159,115L159,115z"/>
</g>
</svg>
