<?xml version="1.0" encoding="utf-8"?>
<!-- Generator: Adobe Illustrator 24.1.1, SVG Export Plug-In . SVG Version: 6.00 Build 0)  -->
<svg version="1.1" id="Layer_1" xmlns="http://www.w3.org/2000/svg" xmlns:xlink="http://www.w3.org/1999/xlink" x="0px" y="0px"
	 viewBox="0 0 100 100" enable-background="new 0 0 100 100" xml:space="preserve">
<g>
	<path d="M-21,118c1.7,0,3,1.3,3,3v33c0,1.7-1.3,3-3,3h-88c-1.7,0-3-1.3-3-3v-33c0-1.7,1.3-3,3-3H-21 M-21,115h-88c-3.3,0-6,2.7-6,6
		v33c0,3.3,2.7,6,6,6h88c3.3,0,6-2.7,6-6v-33C-15,117.7-17.7,115-21,115L-21,115z"/>
</g>
<g>
	<path d="M-76,173c1.7,0,3,1.3,3,3v33c0,1.7-1.3,3-3,3h-33c-1.7,0-3-1.3-3-3v-33c0-1.7,1.3-3,3-3H-76 M-76,170h-33c-3.3,0-6,2.7-6,6
		v33c0,3.3,2.7,6,6,6h33c3.3,0,6-2.7,6-6v-33C-70,172.7-72.7,170-76,170L-76,170z"/>
</g>
<g>
	<path d="M-21,173c1.7,0,3,1.3,3,3v33c0,1.7-1.3,3-3,3h-33c-1.7,0-3-1.3-3-3v-33c0-1.7,1.3-3,3-3H-21 M-21,170h-33c-3.3,0-6,2.7-6,6
		v33c0,3.3,2.7,6,6,6h33c3.3,0,6-2.7,6-6v-33C-15,172.7-17.7,170-21,170L-21,170z"/>
</g>
<g>
	<path d="M94,3c1.7,0,3,1.3,3,3v14.7c0,1.7-1.3,3-3,3H6c-1.7,0-3-1.3-3-3V6c0-1.7,1.3-3,3-3H94 M94,0H6C2.7,0,0,2.7,0,6v14.7
		c0,3.3,2.7,6,6,6h88c3.3,0,6-2.7,6-6V6C100,2.7,97.3,0,94,0L94,0z"/>
</g>
<g>
	<path d="M94,76.3c1.7,0,3,1.3,3,3V94c0,1.7-1.3,3-3,3H6c-1.7,0-3-1.3-3-3V79.3c0-1.7,1.3-3,3-3H94 M94,73.3H6c-3.3,0-6,2.7-6,6V94
		c0,3.3,2.7,6,6,6h88c3.3,0,6-2.7,6-6V79.3C100,76,97.3,73.3,94,73.3L94,73.3z"/>
</g>
<g>
	<path d="M94,39.7c1.7,0,3,1.3,3,3v14.7c0,1.7-1.3,3-3,3H6c-1.7,0-3-1.3-3-3V42.7c0-1.7,1.3-3,3-3H94 M94,36.7H6c-3.3,0-6,2.7-6,6
		v14.7c0,3.3,2.7,6,6,6h88c3.3,0,6-2.7,6-6V42.7C100,39.4,97.3,36.7,94,36.7L94,36.7z"/>
</g>
<path fill="none" d="M-30,21v46h9c1.7,0,3-1.3,3-3V6c0-1.7-1.3-3-3-3h-58c-1.7,0-3,1.3-3,3v9h46C-32.7,15-30,17.7-30,21z"/>
<rect x="-97" y="30" width="12" height="3"/>
<rect x="-48" y="70" width="3" height="12"/>
<path d="M-48,94c0,1.7-1.3,3-3,3h-58c-1.7,0-3-1.3-3-3V36c0-1.7,1.3-3,3-3h9v-3h-9c-3.3,0-6,2.7-6,6v58c0,3.3,2.7,6,6,6h58
	c3.3,0,6-2.7,6-6v-9h-3V94z"/>
<path d="M-51,33c1.7,0,3,1.3,3,3v31h3V36c0-3.3-2.7-6-6-6h-31v3H-51z"/>
<path d="M-21,0h-58c-3.3,0-6,2.7-6,6v9h3V6c0-1.7,1.3-3,3-3h58c1.7,0,3,1.3,3,3v58c0,1.7-1.3,3-3,3h-9v3h9c3.3,0,6-2.7,6-6V6
	C-15,2.7-17.7,0-21,0z"/>
<rect x="-85" y="30" width="3" height="3"/>
<rect x="-48" y="67" width="3" height="3"/>
<path d="M-97,21c0-1.7,1.3-3,3-3h9v-3h-9c-3.3,0-6,2.7-6,6v9h3V21z"/>
<path d="M-36,18c1.7,0,3,1.3,3,3v46h3V21c0-3.3-2.7-6-6-6h-46v3H-36z"/>
<path d="M-33,79c0,1.7-1.3,3-3,3h-9v3h9c3.3,0,6-2.7,6-6v-9h-3V79z"/>
<rect x="-100" y="30" width="3" height="3"/>
<rect x="-48" y="82" width="3" height="3"/>
<rect x="-33" y="67" width="3" height="3"/>
<rect x="-85" y="15" width="3" height="3"/>
<g>
	<path d="M44,118c1.7,0,3,1.3,3,3v13c0,5,4,9,9,9h38c1.7,0,3,1.3,3,3v63c0,1.7-1.3,3-3,3H6c-1.7,0-3-1.3-3-3v-88c0-1.7,1.3-3,3-3H44
		 M44,115H6c-3.3,0-6,2.7-6,6v88c0,3.3,2.7,6,6,6h88c3.3,0,6-2.7,6-6v-63c0-3.3-2.7-6-6-6H56c-3.3,0-6-2.7-6-6v-13
		C50,117.7,47.3,115,44,115L44,115z"/>
</g>
</svg>
