<?xml version="1.0" encoding="utf-8"?>
<!-- Generator: Adobe Illustrator 24.1.1, SVG Export Plug-In . SVG Version: 6.00 Build 0)  -->
<svg version="1.1" id="Layer_1" xmlns="http://www.w3.org/2000/svg" xmlns:xlink="http://www.w3.org/1999/xlink" x="0px" y="0px"
	 viewBox="0 0 100 100" enable-background="new 0 0 100 100" xml:space="preserve">
<g>
	<path d="M-21,3c1.7,0,3,1.3,3,3v33c0,1.7-1.3,3-3,3h-88c-1.7,0-3-1.3-3-3V6c0-1.7,1.3-3,3-3H-21 M-21,0h-88c-3.3,0-6,2.7-6,6v33
		c0,3.3,2.7,6,6,6h88c3.3,0,6-2.7,6-6V6C-15,2.7-17.7,0-21,0L-21,0z"/>
</g>
<g>
	<path d="M-76,58c1.7,0,3,1.3,3,3v33c0,1.7-1.3,3-3,3h-33c-1.7,0-3-1.3-3-3V61c0-1.7,1.3-3,3-3H-76 M-76,55h-33c-3.3,0-6,2.7-6,6v33
		c0,3.3,2.7,6,6,6h33c3.3,0,6-2.7,6-6V61C-70,57.7-72.7,55-76,55L-76,55z"/>
</g>
<g>
	<path d="M-21,58c1.7,0,3,1.3,3,3v33c0,1.7-1.3,3-3,3h-33c-1.7,0-3-1.3-3-3V61c0-1.7,1.3-3,3-3H-21 M-21,55h-33c-3.3,0-6,2.7-6,6v33
		c0,3.3,2.7,6,6,6h33c3.3,0,6-2.7,6-6V61C-15,57.7-17.7,55-21,55L-21,55z"/>
</g>
<g>
	<path d="M94-112c1.7,0,3,1.3,3,3v14.7c0,1.7-1.3,3-3,3H6c-1.7,0-3-1.3-3-3V-109c0-1.7,1.3-3,3-3H94 M94-115H6c-3.3,0-6,2.7-6,6
		v14.7c0,3.3,2.7,6,6,6h88c3.3,0,6-2.7,6-6V-109C100-112.3,97.3-115,94-115L94-115z"/>
</g>
<g>
	<path d="M94-38.7c1.7,0,3,1.3,3,3V-21c0,1.7-1.3,3-3,3H6c-1.7,0-3-1.3-3-3v-14.7c0-1.7,1.3-3,3-3H94 M94-41.7H6c-3.3,0-6,2.7-6,6
		V-21c0,3.3,2.7,6,6,6h88c3.3,0,6-2.7,6-6v-14.7C100-39,97.3-41.7,94-41.7L94-41.7z"/>
</g>
<g>
	<path d="M94-75.3c1.7,0,3,1.3,3,3v14.7c0,1.7-1.3,3-3,3H6c-1.7,0-3-1.3-3-3v-14.7c0-1.7,1.3-3,3-3H94 M94-78.3H6c-3.3,0-6,2.7-6,6
		v14.7c0,3.3,2.7,6,6,6h88c3.3,0,6-2.7,6-6v-14.7C100-75.6,97.3-78.3,94-78.3L94-78.3z"/>
</g>
<path fill="none" d="M-30-94v46h9c1.7,0,3-1.3,3-3v-58c0-1.7-1.3-3-3-3h-58c-1.7,0-3,1.3-3,3v9h46C-32.7-100-30-97.3-30-94z"/>
<rect x="-97" y="-85" width="12" height="3"/>
<rect x="-48" y="-45" width="3" height="12"/>
<path d="M-48-21c0,1.7-1.3,3-3,3h-58c-1.7,0-3-1.3-3-3v-58c0-1.7,1.3-3,3-3h9v-3h-9c-3.3,0-6,2.7-6,6v58c0,3.3,2.7,6,6,6h58
	c3.3,0,6-2.7,6-6v-9h-3V-21z"/>
<path d="M-51-82c1.7,0,3,1.3,3,3v31h3v-31c0-3.3-2.7-6-6-6h-31v3H-51z"/>
<path d="M-21-115h-58c-3.3,0-6,2.7-6,6v9h3v-9c0-1.7,1.3-3,3-3h58c1.7,0,3,1.3,3,3v58c0,1.7-1.3,3-3,3h-9v3h9c3.3,0,6-2.7,6-6v-58
	C-15-112.3-17.7-115-21-115z"/>
<rect x="-85" y="-85" width="3" height="3"/>
<rect x="-48" y="-48" width="3" height="3"/>
<path d="M-97-94c0-1.7,1.3-3,3-3h9v-3h-9c-3.3,0-6,2.7-6,6v9h3V-94z"/>
<path d="M-36-97c1.7,0,3,1.3,3,3v46h3v-46c0-3.3-2.7-6-6-6h-46v3H-36z"/>
<path d="M-33-36c0,1.7-1.3,3-3,3h-9v3h9c3.3,0,6-2.7,6-6v-9h-3V-36z"/>
<rect x="-100" y="-85" width="3" height="3"/>
<rect x="-48" y="-33" width="3" height="3"/>
<rect x="-33" y="-48" width="3" height="3"/>
<rect x="-85" y="-100" width="3" height="3"/>
<g>
	<path d="M44,10.5c1.7,0,3,1.3,3,3v8c0,5,4,9,9,9h38c1.7,0,3,1.3,3,3v53c0,1.7-1.3,3-3,3H6c-1.7,0-3-1.3-3-3v-73c0-1.7,1.3-3,3-3H44
		 M44,7.5H6c-3.3,0-6,2.7-6,6v73c0,3.3,2.7,6,6,6h88c3.3,0,6-2.7,6-6v-53c0-3.3-2.7-6-6-6H56c-3.3,0-6-2.7-6-6v-8
		C50,10.2,47.3,7.5,44,7.5L44,7.5z"/>
</g>
</svg>
